<svg width="60" height="60" viewBox="0 0 60 60" fill="none" xmlns="http://www.w3.org/2000/svg">
<path d="M34.725 27.215L23.98 27.1633V53.0033H34.4016L34.725 27.215Z" fill="white"/>
<path d="M31.1191 53.0033H34.725V27.1233L31.1191 27.1075V53.0033Z" fill="#D0CFCE"/>
<path d="M25.1159 13.3333C25.1159 14.9817 25.105 17.3833 25.4725 18.6C25.6059 19.0392 26.4392 20.4417 26 20.575H33.1317C33.1017 20.5675 33.0184 20.5808 33.0409 20.5583C33.7175 19.915 33.7175 19.915 33.88 19.4842C34.3667 18.1967 34.3117 15.8842 33.9767 14.0175C33.5434 11.6008 30.685 8.03749 29.6725 6.91916C28.5 8.14999 25.1159 10.8067 25.1159 13.3333Z" fill="#FCEA2B"/>
<path d="M25.7566 19.7792C25.4016 18.6033 25.115 16.7042 25.115 14.8208C25.115 11.1408 29.6733 6.92001 29.6733 6.92001C29.6733 6.92001 33.345 10.4967 33.9766 14.0167C34.3375 16.025 33.8725 18.3583 33.3358 19.7792M29.4766 19.7792V23.1467M23.98 53.0033H34.725V27.1633L23.98 27.1075V53.0033Z" stroke="black" stroke-width="0.333333" stroke-miterlimit="10" stroke-linecap="round" stroke-linejoin="round"/>
</svg>
