<svg width="60" height="60" viewBox="0 0 60 60" fill="#d9d9d9" xmlns="http://www.w3.org/2000/svg">
<path d="M48.75 13.125L48.1875 12.5625C45 9 40.3125 7.875 40.3125 7.875C34.6875 6.1875 25.875 9.9375 18.0037 17.6212C11.4413 23.8125 7.5 31.3125 7.5 36.9375C7.5 37.6931 7.69125 38.4394 7.69125 39.1875C8.06438 42.9375 10.5037 46.8769 12.5606 48.7519C15.1912 51.3731 18.5606 52.6931 22.3106 52.6931C28.4981 52.6931 35.8162 49.125 42.5606 42.7537C53.0644 32.4375 55.6875 20.25 48.75 13.125ZM18.75 40.6875C18.75 38.2462 21.3712 33.1875 26.9962 27.5625C32.4394 22.125 38.0644 20.625 40.6856 20.0625C39.375 23.6287 36.5625 27.9337 32.4394 32.0662C28.4981 35.8162 24.0019 38.8106 20.0606 40.3125C19.6875 40.5037 19.1231 40.5037 18.75 40.6875ZM20.625 20.25C26.8125 14.0625 33.375 11.0587 37.5 11.0587C38.8125 11.0587 39.9375 11.4412 40.6875 12.1875C41.4412 12.9337 41.8125 14.4375 41.625 16.1287C39.375 16.3106 31.6837 17.6212 24.375 24.9394C19.6875 29.6269 14.8088 36.3712 15.1912 41.0588C14.0625 41.0588 12.9338 40.6856 12.3788 40.1213C11.9151 39.6586 11.5903 39.0753 11.4413 38.4375C11.4413 38.4375 11.25 37.5 11.25 36.9375C11.4412 32.25 15 25.6875 20.625 20.25ZM39.9375 39.9375C30.9375 48.9412 20.625 51.3712 15.1912 46.1287C14.7686 45.7307 14.3901 45.2881 14.0625 44.8087C14.4375 45 15 45 15.5625 45C17.25 45 19.3125 44.625 21.3712 43.8712C25.8769 42.1875 30.7462 39.0019 35.0606 34.6875C41.6231 28.125 45.3731 20.625 45.3731 15.1912L45.5644 15.3731L46.1269 15.7481C51.3712 21.1894 48.75 31.3106 39.9394 39.9394L39.9375 39.9375Z" fill="#99582a"/>
</svg>
