<svg width="50" height="73" viewBox="0 0 50 73" fill="none" xmlns="http://www.w3.org/2000/svg">
<path d="M25.5799 24.5898C21.2713 24.5898 17.3721 25.1101 14.4744 25.9846C13.0257 26.4219 11.826 26.9418 10.9222 27.5868C10.0201 28.2304 9.33796 29.081 9.33533 30.1259L9.3324 30.1288C9.3324 31.4291 9.43494 32.7019 9.6283 33.9374C9.94958 33.7931 10.298 33.7062 10.6597 33.6933C10.8001 33.6884 10.9404 33.6937 11.084 33.7116C12.2327 33.8552 13.183 34.6094 13.8855 35.5854C14.5881 36.5613 15.0652 37.8012 15.1977 39.1376C15.3302 40.4741 15.0988 41.6864 14.508 42.6136C14.2589 43.0037 13.9277 43.3349 13.5376 43.584C16.4932 47.6113 20.7684 50.1606 25.5799 50.1606C30.3367 50.1606 34.5675 47.6669 37.5183 43.7183C37.0349 43.4653 36.623 43.0765 36.3281 42.6138C35.7373 41.6865 35.5058 40.4741 35.6384 39.1377C35.7709 37.8012 36.2512 36.5615 36.9538 35.5854C37.6562 34.6095 38.6035 33.8552 39.7522 33.7116C39.824 33.7028 39.8952 33.6963 39.9658 33.6934C40.036 33.6907 40.1062 33.6907 40.1763 33.6934C40.6521 33.7104 41.1047 33.8571 41.5039 34.0932C41.7173 32.7835 41.8244 31.4588 41.8242 30.1319V30.1289C41.823 29.0828 41.1404 28.2312 40.2373 27.5869C39.3336 26.9418 38.134 26.4219 36.6851 25.9847C33.7875 25.1101 29.8883 24.5899 25.5797 24.5899L25.5799 24.5898ZM14.9199 27.7578C14.4827 28.1217 14.2426 28.5139 14.2426 28.9234C14.2426 30.8129 19.3197 32.3445 25.5799 32.3445C31.8398 32.3445 36.914 30.8125 36.914 28.9234C36.914 28.5133 36.6719 28.1221 36.2334 27.7577C37.5224 28.1528 38.5432 28.6196 39.1785 29.0729C39.8263 29.5353 39.9994 29.9014 39.9994 30.1318C39.9994 30.3623 39.8263 30.7285 39.1785 31.1909C38.5305 31.6532 37.4832 32.1304 36.1572 32.5308C33.5053 33.331 29.7395 33.846 25.5798 33.846C21.4201 33.846 17.6543 33.331 15.0024 32.5306C13.6765 32.1305 12.6291 31.6532 11.9811 31.1909C11.3332 30.7286 11.1602 30.3624 11.1602 30.1319C11.1602 29.9015 11.3334 29.5354 11.9812 29.073C12.6155 28.6205 13.6338 28.1526 14.9201 27.7578H14.9199ZM10.6963 35.5122C10.6473 35.5114 10.5983 35.5145 10.5498 35.5214C10.2649 35.5622 10.0464 35.7357 9.81736 36.095C9.51228 36.5739 9.30544 37.4021 9.40544 38.4114C9.48533 39.2171 9.74412 39.9935 10.0982 40.6269C10.1993 39.7538 10.9405 39.0766 11.8408 39.0766C12.5228 39.0766 13.1129 39.4666 13.4033 40.0349C13.4131 39.8087 13.4068 39.5688 13.3818 39.3177C13.2819 38.3085 12.9004 37.3425 12.4023 36.6504C11.9043 35.9583 11.3091 35.5808 10.8581 35.5244C10.8044 35.5174 10.7504 35.5133 10.6963 35.5122ZM40.1396 35.5122C40.0886 35.5129 40.0344 35.5174 39.978 35.5244C39.527 35.5808 38.9321 35.9584 38.4338 36.6504C37.9357 37.3426 37.5543 38.3086 37.4543 39.3178C37.4395 39.4669 37.4314 39.6166 37.4299 39.7664C37.7511 39.347 38.2556 39.0767 38.8244 39.0767C39.7937 39.0767 40.5793 39.8621 40.5793 40.8315C40.5793 40.854 40.577 40.8762 40.5761 40.8985C41.0134 40.2239 41.3388 39.3362 41.4306 38.4114C41.5306 37.4023 41.3238 36.5741 41.0185 36.0952C40.7898 35.7358 40.5713 35.5624 40.2861 35.5215C40.2376 35.5145 40.1886 35.5114 40.1396 35.5122ZM25.5981 36.6658C26.7553 36.6658 27.7546 37.346 28.4057 38.2801C29.0569 39.2142 29.4219 40.4283 29.4219 41.753C29.4219 43.0777 29.057 44.2919 28.4058 45.2261C27.7547 46.1603 26.7554 46.8403 25.5982 46.8403C24.441 46.8403 23.4449 46.1602 22.7935 45.2261C22.1426 44.2918 21.7773 43.0778 21.7773 41.7529C21.7773 40.4283 22.1426 39.2143 22.7935 38.2803C23.4447 37.346 24.4408 36.6658 25.5982 36.6658H25.5981ZM25.5981 38.4907C25.1483 38.4907 24.6909 38.747 24.2889 39.3237C23.8866 39.9007 23.6022 40.772 23.6022 41.753C23.6022 42.2071 23.6647 42.637 23.77 43.0257C23.959 42.2604 24.646 41.6921 25.4698 41.6921C26.4391 41.6921 27.2247 42.4775 27.2247 43.447C27.2247 43.5075 27.2215 43.5681 27.2155 43.627C27.4479 43.1039 27.5969 42.4575 27.5969 41.7529C27.5969 40.7721 27.3094 39.9007 26.9072 39.3238C26.5052 38.747 26.0478 38.4908 25.5981 38.4908V38.4907ZM21.768 51.061C21.646 51.6426 21.5158 52.2224 21.3774 52.8003C21.4262 52.8182 21.4756 52.8352 21.527 52.8523C22.4728 53.1665 23.8844 53.3833 25.4455 53.3833C26.9855 53.3833 28.382 53.1718 29.3273 52.8645C29.1813 52.3342 29.042 51.7907 28.9062 51.2409C27.9326 51.4504 26.8486 51.5675 25.7051 51.5675C24.2636 51.5675 22.9174 51.3835 21.7681 51.061H21.768ZM20.9228 54.5734C19.7777 58.7391 18.2949 62.1105 16.5619 63.8874C16.6105 63.9997 16.723 64.1521 16.9647 64.3483C17.336 64.6499 17.9704 64.9843 18.7927 65.2669C20.437 65.832 22.8171 66.2068 25.4455 66.2068C28.0737 66.2068 30.4569 65.832 32.1013 65.2669C32.9234 64.9843 33.5578 64.6499 33.9292 64.3482C34.2381 64.0975 34.3356 63.92 34.3595 63.8051C32.6773 62.0166 31.1089 58.7055 29.84 54.6162C28.6454 54.9969 27.122 55.2083 25.4453 55.2083C23.7203 55.2083 22.1592 54.9843 20.9502 54.5826C20.9408 54.5797 20.9319 54.5766 20.9226 54.5734H20.9228ZM35.8216 64.9494C35.6262 65.2572 35.368 65.5303 35.08 65.7643C34.4559 66.2711 33.6503 66.6652 32.6932 66.9941C30.7792 67.6521 28.2434 68.0317 25.4455 68.0317C22.6474 68.0317 20.1146 67.6521 18.2006 66.9941C17.2435 66.6652 16.4379 66.271 15.814 65.7643C15.5318 65.535 15.2785 65.268 15.0847 64.9678C15.0457 64.9854 15.0078 65.0066 14.9685 65.0228C13.8216 65.4932 12.9106 66.1378 12.6767 67.1253C12.2392 68.9739 18.4236 70.8665 25.5552 70.8668C32.6868 70.867 38.4855 69.18 38.4855 67.1254C38.4855 66.282 37.3722 65.8197 35.8215 64.9496L35.8216 64.9494Z" fill="#99582A"/>
<path d="M26 18.3333C24.8472 18.3333 23.7638 18.1144 22.75 17.6767C21.7361 17.2389 20.8541 16.6453 20.1041 15.8958C19.3541 15.1464 18.7605 14.2644 18.3233 13.25C17.8861 12.2355 17.6672 11.1522 17.6666 9.99999C17.6661 8.84777 17.885 7.76443 18.3233 6.74999C18.7616 5.73555 19.3552 4.8536 20.1041 4.10416C20.853 3.35471 21.735 2.7611 22.75 2.32332C23.765 1.88555 24.8483 1.66666 26 1.66666C27.1516 1.66666 28.235 1.88555 29.25 2.32332C30.265 2.7611 31.1469 3.35471 31.8958 4.10416C32.6447 4.8536 33.2386 5.73555 33.6775 6.74999C34.1163 7.76443 34.335 8.84777 34.3333 9.99999C34.3316 11.1522 34.1127 12.2355 33.6766 13.25C33.2405 14.2644 32.6469 15.1464 31.8958 15.8958C31.1447 16.6453 30.2627 17.2392 29.25 17.6775C28.2372 18.1158 27.1538 18.3344 26 18.3333Z" fill="black" fill-opacity="0.5"/>
</svg>
