<svg width="60" height="60" viewBox="0 0 60 60" fill="none" xmlns="http://www.w3.org/2000/svg">
<path d="M15.9667 33.3667L16.3234 31.65C15.1417 30.4692 15.0534 29.1517 15.1042 28.5525C15.1425 28.1075 14.9325 24.9225 20.5525 19.4775C21.1182 18.937 21.6049 18.3196 21.9984 17.6433C22.7867 16.2725 24.2584 13.4783 26.415 8.45166C29.6242 0.969989 33.1784 18.5767 32.5784 23.61C32.5 24.2692 31.7642 28.04 31.6534 28.695L29.2534 37.6867" fill="#9B9B9A"/>
<path d="M31.6583 38.5667C55.6333 37.7933 47.125 6.85833 46.35 10.725C45.5767 14.5917 23.15 37.0167 20.8333 33.925C18.5133 30.8317 15.42 30.0583 13.8733 32.3783C12.3267 34.6983 11.5533 35.4717 11.5533 35.4717C11.5533 35.4717 16.1933 34.6983 16.9667 36.245C17.74 37.7917 20.1925 42.8667 24.7 43.205C24.7 43.205 26.2392 43.73 29.34 50.165C32.9558 57.6683 47.8983 50.165 43.2567 46.2983C38.6167 42.4317 35.5233 43.9783 33.2067 42.4317C30.8867 40.885 31.66 38.565 31.66 38.565L31.6583 38.5667Z" fill="#D0CFCE"/>
<path d="M30.7084 50.7833C30.7392 51.0792 38.6184 52.3275 43.4667 46.2633C43.6025 46.0933 44.1934 46.4108 44.3692 46.4633C45.5259 49.8733 37.9892 54.1883 34.3775 53.145C31.3067 52.0816 30.7159 50.7825 30.7159 50.7825L30.7084 50.7833ZM31.4084 37.9C31.4792 36.4317 48.975 35.4325 46.5584 11.275C46.4367 10.0583 48.4984 16.6316 48.57 17.8116C49.98 30.0283 41.69 39.7033 31.4117 37.9033L31.4084 37.9ZM27.1 31.4333C30.2817 26.9508 30.6025 15.3833 27.8942 7.08331C27.515 5.92081 30.79 11.1941 31.1975 12.3041C33.1892 17.8341 33.4242 23.0791 31.6675 27.6291L27.1 31.4333Z" fill="#3F3F3F"/>
<path d="M19.9 39.8917C21.8817 39.9 23.105 37.1525 22.54 35.1983C19.8408 30.3183 14.7742 28.9283 12.0817 35.3908C16.975 33.7408 17.7717 36.6033 19.9 39.8917Z" fill="#9B9B9A"/>
<path d="M31.9083 38.4417C55.5417 37.6792 47.1583 7.18333 46.3917 11C45.625 14.8167 23.525 36.9167 21.2333 33.8667C18.9466 30.8175 15.8966 30.055 14.3725 32.3417C12.8483 34.6283 12.0858 35.3908 12.0858 35.3908C12.0858 35.3908 16.66 34.6283 17.4225 36.1533C18.185 37.6783 20.6025 42.6808 25.0458 43.0142C25.0458 43.0142 26.5633 43.5317 29.62 49.875C33.1841 57.2717 47.92 49.875 43.345 46.0633C38.7708 42.2517 35.7217 43.7767 33.4367 42.2517C31.15 40.7267 31.9116 38.44 31.9116 38.44L31.9083 38.4417Z" stroke="black" stroke-width="0.333333" stroke-miterlimit="10" stroke-linecap="round" stroke-linejoin="round"/>
<path d="M31.975 22.0917C32.2366 16.2425 29.2566 2.00001 26.5741 8.70834C23.525 16.3317 22 18.6167 22 18.6167C18.3766 22.0583 17.0358 24.64 16.5591 26.2517" stroke="black" stroke-width="0.333333" stroke-miterlimit="10" stroke-linecap="round" stroke-linejoin="round"/>
</svg>
